<svg
  class="month-picker__prev-btn"
  width="24"
  height="24"
  viewBox="0 0 24 24"
  fill="none"
  xmlns="http://www.w3.org/2000/svg"
>
  <path
    d="M11.2899 6.29L6.2899 11.29C6.19886 11.3851 6.12749 11.4972 6.0799 11.62C5.97988 11.8635 5.97988 12.1365 6.0799 12.38C6.12749 12.5027 6.19886 12.6149 6.2899 12.71L11.2899 17.71C11.3831 17.8032 11.4938 17.8772 11.6156 17.9277C11.7375 17.9781 11.868 18.0041 11.9999 18.0041C12.2662 18.0041 12.5216 17.8983 12.7099 17.71C12.8982 17.5217 13.004 17.2663 13.004 17C13.004 16.7337 12.8982 16.4783 12.7099 16.29L9.4099 13L16.9999 13C17.2651 13 17.5195 12.8946 17.707 12.7071C17.8945 12.5196 17.9999 12.2652 17.9999 12C17.9999 11.7348 17.8945 11.4804 17.707 11.2929C17.5195 11.1054 17.2651 11 16.9999 11L9.4099 11L12.7099 7.71C12.8036 7.61703 12.878 7.50643 12.9288 7.38457C12.9796 7.26272 13.0057 7.13201 13.0057 7C13.0057 6.86799 12.9796 6.73728 12.9288 6.61542C12.878 6.49356 12.8036 6.38296 12.7099 6.29C12.6169 6.19627 12.5063 6.12187 12.3845 6.07111C12.2626 6.02034 12.1319 5.9942 11.9999 5.9942C11.8679 5.9942 11.7372 6.02034 11.6153 6.07111C11.4935 6.12187 11.3829 6.19627 11.2899 6.29Z"
    fill="black"
  />
</svg>